<?xml version="1.0" encoding="utf-8"?>
<!-- Generator: Adobe Illustrator 23.0.2, SVG Export Plug-In . SVG Version: 6.00 Build 0)  -->
<svg version="1.1" id="twitter" xmlns="http://www.w3.org/2000/svg" xmlns:xlink="http://www.w3.org/1999/xlink" x="0px" y="0px"
	 viewBox="0 0 100 100" style="enable-background:new 0 0 100 100;" xml:space="preserve">
<style type="text/css">
	.st0{fill:#F09E34;}
	.st1{fill:#F7F7F7;}
</style>
<circle class="st0" cx="50" cy="50" r="48"/>
<g>
	<g>
		<path class="st1" d="M59.7,72.4H40.4c-7.2,0-13.1-5.5-13.1-12.3V39.3c0-6.8,5.9-12.3,13.1-12.3h19.3c7.2,0,13.1,5.5,13.1,12.3V60
			C72.8,66.8,66.9,72.4,59.7,72.4z M40.4,31.3c-4.8,0-8.8,3.6-8.8,8V60c0,4.4,3.9,8,8.8,8h19.3c4.8,0,8.8-3.6,8.8-8V39.3
			c0-4.4-3.9-8-8.8-8H40.4z"/>
	</g>
	<g>
		<path class="st1" d="M50.1,61.3c-6.4,0-11.6-5.2-11.6-11.6c0-6.4,5.2-11.6,11.6-11.6c6.4,0,11.6,5.2,11.6,11.6
			C61.7,56.1,56.5,61.3,50.1,61.3z M50.1,42.1c-4.2,0-7.6,3.4-7.6,7.6c0,4.2,3.4,7.6,7.6,7.6s7.6-3.4,7.6-7.6
			C57.7,45.5,54.3,42.1,50.1,42.1z"/>
	</g>
	<path class="st1" d="M65.3,37.5c0,1.6-1.3,2.9-2.9,2.9c-1.6,0-2.9-1.3-2.9-2.9c0-1.6,1.3-2.9,2.9-2.9C64,34.7,65.3,36,65.3,37.5z"
		/>
</g>
</svg>
